<?xml version="1.0" encoding="UTF-8"?>
<svg id="Layer_2" data-name="Layer 2" xmlns="http://www.w3.org/2000/svg" viewBox="0 0 307.31 105.36">
  <defs>
    <style>
      .cls-1 {
        fill: #231f20;
      }
    </style>
  </defs>
  <g id="Layer_1-2" data-name="Layer 1">
    <g>
      <path class="cls-1" d="M3.36,105.36c-2.24,0-3.36-.96-3.36-2.88,0-.88.28-1.84.84-2.88l30-51.84c.88-1.6,2.22-2.96,4.02-4.08,1.8-1.12,3.46-1.68,4.98-1.68h28.8c2.24,0,3.36.96,3.36,2.88,0,.88-.28,1.84-.84,2.88l-30,51.84c-.88,1.6-2.22,2.96-4.02,4.08-1.8,1.12-3.46,1.68-4.98,1.68H3.36Z"/>
      <path class="cls-1" d="M123.6,28.2c.48.8.72,1.88.72,3.24,0,2-.48,3.84-1.44,5.52l-36.12,62.64c-.96,1.6-2.32,2.96-4.08,4.08-1.76,1.12-3.44,1.68-5.04,1.68h-28.8c-2.24,0-3.36-.96-3.36-2.88,0-.88.32-1.84.96-2.88l36.6-63.36L102.12,3.12c1.2-2.08,2.48-3.12,3.84-3.12.72,0,1.28.36,1.68,1.08l15.96,27.12Z"/>
      <path class="cls-1" d="M169.92,28.2c.48.8.72,1.88.72,3.24,0,2-.48,3.84-1.44,5.52l-36.12,62.64c-.96,1.6-2.32,2.96-4.08,4.08-1.76,1.12-3.44,1.68-5.04,1.68h-28.8c-2.24,0-3.36-.96-3.36-2.88,0-.88.32-1.84.96-2.88l36.6-63.36L148.44,3.12c1.2-2.08,2.48-3.12,3.84-3.12.72,0,1.28.36,1.68,1.08l15.96,27.12Z"/>
      <path class="cls-1" d="M142.31,105.36c-2.24,0-3.36-.96-3.36-2.88,0-.88.28-1.84.84-2.88l30-51.84c.88-1.6,2.22-2.96,4.02-4.08,1.8-1.12,3.46-1.68,4.98-1.68h28.8c2.24,0,3.36.96,3.36,2.88,0,.88-.28,1.84-.84,2.88l-30,51.84c-.88,1.6-2.22,2.96-4.02,4.08-1.8,1.12-3.46,1.68-4.98,1.68h-28.8Z"/>
      <path class="cls-1" d="M304.07,42c2.16,0,3.24.96,3.24,2.88,0,.88-.28,1.84-.84,2.88l-30,51.84c-.88,1.6-2.22,2.96-4.02,4.08-1.8,1.12-3.46,1.68-4.98,1.68h-80.64c-2.24,0-3.36-.96-3.36-2.88,0-.88.28-1.84.84-2.88l13.32-23.04c.96-1.6,2.32-2.96,4.08-4.08,1.76-1.12,3.44-1.68,5.04-1.68h40.32c1.61,0,3.3-.56,5.07-1.67,1.77-1.12,3.13-2.47,4.1-4.07l6.63-11.49c.5-1.05.76-2.02.76-2.9,0-1.94-1.08-2.9-3.24-2.9-1.59,0-3.25.57-4.99,1.69-1.74,1.13-3.09,2.5-4.04,4.12l-3.34,5.77c-.88,1.58-2.23,2.93-4.03,4.04s-3.47,1.66-4.99,1.66h-28.87c-2.25,0-3.37-.96-3.37-2.88,0-.88.28-1.84.84-2.88l6.72-11.52c.88-1.6,2.22-2.96,4.02-4.08,1.8-1.12,3.5-1.68,5.1-1.68h80.64ZM246.21,82.31c.57-1.04.86-2,.86-2.88,0-1.91-1.12-2.87-3.36-2.87-1.6,0-3.28.56-5.04,1.68-1.76,1.12-3.08,2.48-3.96,4.08l-6.72,11.52c-.56,1.04-.84,2-.84,2.88,0,1.92,1.08,2.88,3.24,2.88,1.6,0,3.3-.56,5.1-1.68,1.8-1.12,3.14-2.48,4.02-4.08l6.69-11.54Z"/>
    </g>
  </g>
</svg>